<?xml version="1.0" encoding="UTF-8" standalone="no"?>
<!-- Created with Inkscape (http://www.inkscape.org/) -->

<svg
   width="800mm"
   height="800mm"
   viewBox="0 0 800 800"
   version="1.1"
   id="svg1"
   inkscape:version="1.4.2 (f4327f4, 2025-05-13)"
   sodipodi:docname="SynthLauncher-v5.svg"
   inkscape:export-filename="..\..\Icons\synthlogo-16.png"
   inkscape:export-xdpi="1"
   inkscape:export-ydpi="1"
   xmlns:inkscape="http://www.inkscape.org/namespaces/inkscape"
   xmlns:sodipodi="http://sodipodi.sourceforge.net/DTD/sodipodi-0.dtd"
   xmlns="http://www.w3.org/2000/svg"
   xmlns:svg="http://www.w3.org/2000/svg">
  <sodipodi:namedview
     id="namedview1"
     pagecolor="#505050"
     bordercolor="#eeeeee"
     borderopacity="1"
     inkscape:showpageshadow="0"
     inkscape:pageopacity="0"
     inkscape:pagecheckerboard="true"
     inkscape:deskcolor="#505050"
     inkscape:document-units="mm"
     inkscape:zoom="0.18482014"
     inkscape:cx="611.40523"
     inkscape:cy="1106.4811"
     inkscape:window-width="1920"
     inkscape:window-height="1051"
     inkscape:window-x="-9"
     inkscape:window-y="-9"
     inkscape:window-maximized="1"
     inkscape:current-layer="layer1">
    <inkscape:page
       x="0"
       y="0"
       width="800"
       height="800"
       id="page2"
       margin="0"
       bleed="0" />
  </sodipodi:namedview>
  <defs
     id="defs1" />
  <g
     inkscape:label="Layer 1"
     inkscape:groupmode="layer"
     id="layer1"
     style="display:inline">
    <path
       sodipodi:type="star"
       style="display:inline;fill:#2d2d2d;fill-opacity:1;stroke-width:0.264583"
       id="path97"
       inkscape:flatsided="true"
       sodipodi:sides="6"
       sodipodi:cx="396.47537"
       sodipodi:cy="400.75391"
       sodipodi:r1="238.20889"
       sodipodi:r2="206.29495"
       sodipodi:arg1="1.3089969"
       sodipodi:arg2="1.8325957"
       inkscape:rounded="0.05"
       inkscape:randomized="0"
       d="M 458.12838,630.84603 C 446.62377,633.92868 236.45821,577.61499 228.03626,569.19304 219.6143,560.77108 163.3006,350.60552 166.38325,339.10092 169.4659,327.59631 323.31776,173.74444 334.82237,170.66179 c 11.5046,-3.08265 221.67016,53.23103 230.09212,61.65299 8.42196,8.42195 64.73566,218.58751 61.65301,230.09212 -3.08265,11.5046 -156.93451,165.35648 -168.43912,168.43913 z"
       transform="matrix(1.5,0,0,1.5,-194.71306,-201.13086)" />
    <path
       id="path32"
       style="display:inline;fill:#6233df;fill-opacity:1;stroke:#d30000;stroke-width:24;stroke-dasharray:24, 24;stroke-opacity:0"
       d="M 581.59788,218.24042 648.45637,467.75975 465.79555,650.42057 216.27622,583.56207 149.41771,334.04274 332.07855,151.38191 Z" />
    <path
       id="path32-5"
       style="display:inline;fill:#4e1fcb;fill-opacity:1;stroke:#d30000;stroke-width:24;stroke-dasharray:24, 24;stroke-opacity:0"
       d="m 581.59788,218.24042 66.85849,249.51933 -182.66082,182.66082 v 0 L 400,399.99999 Z"
       sodipodi:nodetypes="ccccccc" />
    <path
       id="path32-6"
       style="display:inline;fill:#6f44e2;fill-opacity:1;stroke:#ca0000;stroke-width:24;stroke-dasharray:24, 24;stroke-opacity:0"
       d="M 581.59788,218.24042 400,399.99999 v 0 0 L 149.41771,334.04274 332.07855,151.38191 Z"
       sodipodi:nodetypes="ccccccc" />
    <path
       id="path32-3"
       style="display:inline;fill:#8561e6;fill-opacity:1;stroke:#d30000;stroke-width:24;stroke-dasharray:24, 24;stroke-opacity:0"
       d="m 149.41771,334.04274 316.37784,316.37783 m 0,0 -249.51933,-66.8585 m 0,0 -66.85851,-249.51933 m 0,0 182.66084,-182.66083 249.51933,66.85851 -432.18017,115.80232"
       sodipodi:nodetypes="cccccccccc" />
    <path
       id="path32-66"
       style="display:inline;fill:#8561e6;fill-opacity:1;stroke:#d30000;stroke-width:24;stroke-dasharray:24, 24;stroke-opacity:0"
       d="m 581.59788,218.24042 66.85849,249.51933 m 0,0 -182.66082,182.66082 -249.51933,-66.8585 -66.85851,-249.51933 316.37784,316.37783 m 0,0 115.80233,-432.18015"
       sodipodi:nodetypes="ccccccccc" />
    <path
       id="path32-63"
       style="display:inline;fill:#8561e6;fill-opacity:1;stroke:#d30000;stroke-width:24;stroke-dasharray:24, 24;stroke-opacity:0"
       d="M 581.59788,218.24042 648.45637,467.75975 465.79555,650.42057 Z"
       sodipodi:nodetypes="cccc" />
  </g>
</svg>
