<svg version="1.1" id="Layer_1" xmlns="http://www.w3.org/2000/svg" xmlns:xlink="http://www.w3.org/1999/xlink" x="0px" y="0px"
	 width="100%" viewBox="0 0 512 512" enable-background="new 0 0 512 512" xml:space="preserve">
<path fill="#232424" opacity="1.000000" stroke="none" 
	d="
M338.000000,513.000000 
	C225.360703,513.000000 113.221397,513.000000 1.041047,513.000000 
	C1.041047,342.402344 1.041047,171.804672 1.041047,1.103501 
	C171.555969,1.103501 342.112030,1.103501 512.834045,1.103501 
	C512.834045,171.666534 512.834045,342.333252 512.834045,513.000000 
	C454.804657,513.000000 396.652313,513.000000 338.000000,513.000000 
M401.201141,149.922226 
	C394.475555,152.945786 387.750000,155.969345 381.122314,158.293396 
	C386.494873,148.382401 391.867462,138.471390 397.240021,128.560394 
	C396.766022,128.195923 396.292023,127.831451 395.818024,127.466980 
	C393.873108,129.133301 391.915619,130.785172 389.985565,132.468536 
	C383.653015,137.991669 377.330444,143.526245 370.950897,148.208893 
	C372.296570,141.482422 373.642242,134.755966 374.987915,128.029495 
	C373.390991,128.456772 372.598785,129.212936 371.936188,130.069351 
	C367.273132,136.096283 362.636749,142.143845 357.975525,147.231430 
	C357.975525,141.873672 357.975525,136.515915 357.975525,131.158173 
	C357.375641,131.096832 356.775757,131.035492 356.175873,130.974152 
	C355.193329,132.840591 354.146149,134.676239 353.240356,136.579193 
	C350.469025,142.401260 347.752014,148.249207 344.719971,153.405716 
	C343.630676,150.659592 342.541382,147.913467 341.452087,145.167343 
	C340.837433,145.228806 340.222778,145.290283 339.608124,145.351761 
	C338.088379,153.270630 336.568634,161.189514 334.803467,169.741180 
	C333.715454,170.484924 332.601776,171.194061 331.543427,171.977890 
	C322.884064,178.391144 319.785583,187.217590 321.622528,197.478882 
	C323.378387,207.287399 329.555817,214.164490 339.127594,216.731186 
	C352.483185,220.312469 365.970673,214.682663 371.817657,197.905960 
	C378.892365,194.195068 387.201996,192.568756 393.313782,186.487213 
	C389.821228,185.019348 387.381775,183.994064 385.309814,182.404816 
	C391.401886,177.642426 397.493958,172.880020 403.585999,168.117630 
	C401.677277,167.283768 400.441406,167.604370 399.185486,167.742630 
	C395.069092,168.195847 390.945435,168.582809 387.216370,168.427444 
	C392.157318,162.295258 397.098267,156.163071 402.273315,149.911545 
	C402.168854,149.924759 402.064423,149.937988 401.201141,149.922226 
M373.830811,365.873993 
	C373.275146,359.423248 370.057098,355.927032 364.538055,355.777985 
	C359.515656,355.642303 355.648651,358.826080 354.754089,363.833282 
	C353.893127,368.652344 356.664093,373.494781 361.087067,374.900696 
	C366.268097,376.547577 370.628876,374.383240 373.428345,368.548798 
	C373.543549,367.909943 373.658752,367.271088 373.830811,365.873993 
M178.333542,289.621063 
	C167.237946,286.381348 160.899124,279.132019 160.123657,267.679688 
	C147.993774,267.679688 136.274261,267.679688 124.354790,267.679688 
	C124.697655,286.759460 131.059509,302.793060 147.407471,312.555725 
	C173.867126,328.356842 201.511673,328.433533 228.128845,313.259033 
	C246.185898,302.964722 251.966736,285.443268 250.132126,265.288177 
	C248.385651,246.101501 236.779694,234.720505 219.700089,228.133560 
	C212.582825,225.388718 205.160950,223.434799 197.881165,221.110046 
	C188.569534,218.136414 179.147766,215.456757 169.998535,212.046570 
	C165.197296,210.257004 162.441269,206.225983 162.601120,200.675674 
	C162.768631,194.859131 165.824722,190.987717 170.773666,188.514420 
	C177.894470,184.955719 185.389847,184.376175 193.135086,186.101868 
	C203.439713,188.397781 208.564529,193.735153 210.365875,204.174683 
	C210.471985,204.789520 210.817474,205.363052 210.948090,205.693817 
	C222.602203,205.693817 233.976318,205.693817 245.645477,205.693817 
	C245.042542,187.414688 239.270004,172.411209 223.619385,162.334824 
	C202.581680,148.790054 164.043381,150.325836 143.797821,164.992081 
	C121.803093,180.925461 118.132179,225.609665 149.206528,240.274628 
	C156.680557,243.801865 164.642685,246.400909 172.554749,248.867310 
	C182.697113,252.028961 193.136612,254.260544 203.213181,257.601379 
	C209.238464,259.599060 214.018402,263.566711 214.319504,270.874268 
	C214.633804,278.501984 210.576996,283.445709 204.345444,286.828522 
	C196.396271,291.143707 187.895737,291.817535 178.333542,289.621063 
M377.860229,294.657227 
	C377.860229,292.501007 377.860229,290.344818 377.860229,287.494873 
	C356.745300,287.494873 335.864990,287.494873 314.519531,287.494873 
	C314.519531,243.374405 314.519531,199.946121 314.519531,156.415161 
	C302.502014,156.415161 290.972900,156.415161 279.349243,156.415161 
	C279.349243,211.224731 279.349243,265.627533 279.349243,320.230530 
	C312.239136,320.230530 344.838226,320.230530 377.858429,320.230530 
	C377.858429,311.866425 377.858429,303.744965 377.860229,294.657227 
M321.496338,248.338516 
	C321.431854,250.666367 321.279266,252.995697 321.317810,255.321838 
	C321.506226,266.695618 330.360291,276.911133 341.493805,278.665802 
	C354.257843,280.677490 365.723022,274.245911 369.885529,262.739044 
	C373.916718,251.595322 369.460052,238.301483 359.772949,232.573853 
	C344.884796,223.771057 327.501770,230.633774 321.496338,248.338516 
M136.376480,359.982605 
	C134.931000,359.211517 133.485519,358.440430 131.870773,357.579041 
	C136.503204,351.285828 139.792068,361.561737 143.782089,357.456818 
	C142.958038,351.321320 136.793564,348.136169 130.956436,351.460541 
	C129.054886,352.543488 127.285789,355.468903 127.190475,357.628204 
	C127.107132,359.516357 129.107773,361.952301 130.837799,363.329895 
	C132.405472,364.578186 134.944687,364.526398 136.869614,365.439697 
	C137.837769,365.899078 138.392914,367.228943 139.134811,368.165161 
	C138.119919,368.860840 137.146194,370.029907 136.078857,370.122803 
	C134.949371,370.221100 133.730209,369.296570 132.551239,368.816345 
	C130.760895,368.087036 128.971405,367.355591 126.597046,366.386536 
	C126.936630,372.453369 129.857697,374.587067 134.014023,375.089020 
	C138.115204,375.584320 142.127869,375.097351 144.208923,370.745209 
	C146.450058,366.058258 144.004044,362.494446 136.376480,359.982605 
M245.316391,361.025848 
	C243.114410,369.018372 246.422089,375.101746 253.315643,375.234436 
	C256.869904,375.302887 260.438385,374.633820 264.027893,374.295441 
	C264.027893,368.384430 264.027893,362.478119 264.027893,356.567780 
	C261.798553,356.567780 259.672058,357.025635 257.845093,356.480225 
	C252.775253,354.966675 248.729996,355.903473 245.316391,361.025848 
M151.991608,381.312622 
	C153.619431,380.277863 155.979645,379.624207 156.750168,378.143402 
	C160.369781,371.187012 163.552643,364.003387 167.013596,356.641022 
	C158.087372,354.592682 160.785522,363.673645 156.809784,365.746338 
	C153.061462,363.218567 155.369385,354.492065 146.684509,356.630005 
	C148.541336,360.784332 150.275360,364.673096 152.016998,368.558472 
	C154.926987,375.050385 154.929031,375.049469 147.117676,378.425323 
	C148.912430,379.719757 150.092911,380.571198 151.991608,381.312622 
M330.329742,369.176331 
	C328.635834,366.203339 326.886322,367.667419 324.607788,368.642914 
	C322.725006,369.448944 320.268402,368.914581 318.066040,368.974121 
	C318.018738,366.708679 317.971405,364.443268 317.924072,362.177826 
	C320.150085,362.175018 322.396729,361.985138 324.595703,362.227661 
	C326.412323,362.428009 328.172638,363.139435 330.811554,363.856323 
	C327.322906,355.786835 320.731079,353.596802 315.378265,357.592224 
	C311.994751,360.117706 310.603271,363.535309 311.573822,367.664978 
	C312.530487,371.735565 315.085114,374.421814 319.301208,375.151642 
	C324.131989,375.987976 327.718231,374.118713 330.329742,369.176331 
M222.295563,359.633423 
	C219.726852,354.376160 215.386398,355.907288 211.165268,357.115814 
	C210.997482,354.482849 210.852676,352.210571 210.705261,349.897095 
	C208.974213,349.897095 207.575638,349.897095 206.133850,349.897095 
	C206.133850,358.312103 206.133850,366.404816 206.133850,374.569489 
	C207.812225,374.569489 209.200104,374.569489 211.052811,374.569489 
	C211.052811,370.968048 210.659149,367.595795 211.226791,364.394012 
	C211.491669,362.899872 213.617676,361.735718 214.900101,360.421997 
	C215.955200,361.845856 217.695618,363.168976 217.922699,364.714478 
	C218.394958,367.928589 218.065414,371.260529 218.065414,374.571045 
	C220.050644,374.571045 221.438004,374.571045 223.334335,374.571045 
	C223.111557,369.628784 222.903214,365.006805 222.295563,359.633423 
M351.163788,372.207062 
	C351.164490,370.209076 351.173035,368.211090 351.164520,366.213135 
	C351.124298,356.776947 348.370483,354.628448 339.156738,357.003662 
	C339.022980,354.685791 338.890991,352.398621 338.752563,349.999634 
	C337.056824,349.999634 335.557953,349.999634 334.209961,349.999634 
	C334.209961,358.520325 334.209961,366.605194 334.209961,375.000061 
	C335.997009,374.802460 337.389252,374.648499 339.025818,374.467499 
	C339.025818,370.935822 338.573639,367.689545 339.208038,364.671692 
	C339.548035,363.054352 341.757690,361.830048 343.123627,360.428375 
	C344.105713,361.923187 345.714783,363.330688 345.937653,364.931152 
	C346.383362,368.132477 346.069885,371.439453 346.069885,376.197693 
	C348.552307,374.699280 349.849396,373.916351 351.163788,372.207062 
M169.096344,372.980560 
	C170.585663,373.737457 172.074997,374.494354 174.411896,375.681976 
	C174.411896,371.003754 173.954254,367.764038 174.595200,364.758606 
	C174.941895,363.132935 177.163986,361.907196 178.540024,360.501038 
	C179.458908,362.021729 180.949173,363.463043 181.173859,365.080170 
	C181.598785,368.138763 181.296677,371.298370 181.296677,374.660187 
	C183.267517,374.660187 184.695450,374.660187 186.844574,374.660187 
	C186.642166,370.093414 186.704453,365.636810 186.169479,361.253082 
	C185.728790,357.642029 183.135544,355.718567 179.511459,355.883240 
	C176.200089,356.033722 172.909821,356.647858 169.089355,357.122375 
	C169.089355,361.849915 169.089355,366.963806 169.096344,372.980560 
M281.019928,358.008606 
	C281.005890,360.668030 281.428436,363.432465 280.822815,365.949554 
	C280.426025,367.598785 278.541595,368.890106 277.323456,370.341736 
	C276.224915,368.935699 274.417084,367.640594 274.176239,366.100433 
	C273.682129,362.940826 274.027893,359.649902 274.027893,356.694183 
	C269.534393,355.380554 268.281464,356.895874 268.599487,360.438568 
	C268.836639,363.079926 268.593658,365.773651 268.942413,368.393738 
	C269.573151,373.131897 272.767395,375.165192 277.262909,375.350220 
	C282.005798,375.545349 285.636505,372.872620 286.092834,368.379303 
	C286.488068,364.487732 286.174988,360.524231 286.174988,355.868530 
	C284.130402,356.398987 282.670532,356.777740 281.019928,358.008606 
M296.105682,363.060059 
	C297.570801,362.247681 299.035950,361.435303 300.501068,360.622925 
	C301.283447,362.134918 302.512543,363.581116 302.747070,365.173737 
	C303.131042,367.781769 302.847412,370.485382 302.898193,373.147705 
	C302.906982,373.607635 303.177429,374.062561 303.351074,374.593323 
	C304.813721,374.593323 306.202362,374.593323 307.858612,374.593323 
	C307.858612,370.347504 308.122467,366.364746 307.784180,362.433807 
	C307.447968,358.527557 305.233551,355.829651 300.986786,355.948059 
	C297.662292,356.040741 294.352020,356.642181 290.838867,357.039825 
	C290.838867,362.626740 290.838867,368.570282 290.838867,374.604156 
	C292.481201,374.604156 293.900024,374.604156 295.930359,374.604156 
	C295.930359,370.870148 295.930359,367.408997 296.105682,363.060059 
M227.908447,370.329193 
	C228.016846,371.755341 228.125244,373.181458 228.238876,374.676270 
	C233.090302,374.676270 237.522675,374.676270 242.199387,374.676270 
	C242.199387,373.069397 242.199387,371.690369 242.199387,370.121124 
	C239.134064,369.949310 236.386368,369.795319 233.093216,369.610718 
	C233.093216,363.153137 233.093216,357.089081 233.093216,350.719116 
	C231.057693,350.867493 229.623291,350.972046 227.908371,351.097076 
	C227.908371,357.402863 227.908371,363.381683 227.908447,370.329193 
M202.659866,357.630707 
	C201.164856,356.922058 199.669846,356.213379 197.919174,355.383545 
	C197.697296,354.428711 197.381393,353.069275 196.888794,350.949463 
	C193.953751,354.041290 191.512863,356.612579 189.071976,359.183868 
	C189.590637,359.222015 190.109299,359.260132 190.627975,359.298248 
	C191.181137,361.606293 192.091782,363.894470 192.221115,366.226013 
	C192.624557,373.500061 194.921646,375.499390 202.898148,374.358002 
	C202.571518,373.055237 202.433228,370.733093 201.898010,370.637665 
	C195.143356,369.433472 198.301590,364.563507 197.882324,361.836578 
	C199.865265,360.432587 201.278519,359.431976 202.659866,357.630707 
M382.268646,357.405273 
	C380.732208,356.972168 379.195801,356.539032 377.255585,355.992096 
	C377.255585,362.548248 377.255585,368.454346 377.255585,374.512390 
	C379.009644,374.512390 380.507355,374.512390 381.684174,374.512390 
	C383.982391,369.527161 378.125061,361.557251 387.959503,360.580627 
	C387.959503,359.027374 387.959503,357.741974 387.959503,355.889832 
	C386.093994,356.298798 384.548553,356.637604 382.268646,357.405273 
M397.668152,126.574043 
	C397.668152,126.574043 397.411102,126.450676 397.411102,126.450676 
	C397.411102,126.450676 397.467163,126.733871 397.668152,126.574043 
z"/>
<path fill="#FCFCFC" opacity="1.000000" stroke="none" 
	d="
M178.735352,289.717804 
	C187.895737,291.817535 196.396271,291.143707 204.345444,286.828522 
	C210.576996,283.445709 214.633804,278.501984 214.319504,270.874268 
	C214.018402,263.566711 209.238464,259.599060 203.213181,257.601379 
	C193.136612,254.260544 182.697113,252.028961 172.554749,248.867310 
	C164.642685,246.400909 156.680557,243.801865 149.206528,240.274628 
	C118.132179,225.609665 121.803093,180.925461 143.797821,164.992081 
	C164.043381,150.325836 202.581680,148.790054 223.619385,162.334824 
	C239.270004,172.411209 245.042542,187.414688 245.645477,205.693817 
	C233.976318,205.693817 222.602203,205.693817 210.948090,205.693817 
	C210.817474,205.363052 210.471985,204.789520 210.365875,204.174683 
	C208.564529,193.735153 203.439713,188.397781 193.135086,186.101868 
	C185.389847,184.376175 177.894470,184.955719 170.773666,188.514420 
	C165.824722,190.987717 162.768631,194.859131 162.601120,200.675674 
	C162.441269,206.225983 165.197296,210.257004 169.998535,212.046570 
	C179.147766,215.456757 188.569534,218.136414 197.881165,221.110046 
	C205.160950,223.434799 212.582825,225.388718 219.700089,228.133560 
	C236.779694,234.720505 248.385651,246.101501 250.132126,265.288177 
	C251.966736,285.443268 246.185898,302.964722 228.128845,313.259033 
	C201.511673,328.433533 173.867126,328.356842 147.407471,312.555725 
	C131.059509,302.793060 124.697655,286.759460 124.354790,267.679688 
	C136.274261,267.679688 147.993774,267.679688 160.123657,267.679688 
	C160.899124,279.132019 167.237946,286.381348 178.735352,289.717804 
z"/>
<path fill="#FCFCFC" opacity="1.000000" stroke="none" 
	d="
M377.859314,295.140350 
	C377.858429,303.744965 377.858429,311.866425 377.858429,320.230530 
	C344.838226,320.230530 312.239136,320.230530 279.349243,320.230530 
	C279.349243,265.627533 279.349243,211.224731 279.349243,156.415161 
	C290.972900,156.415161 302.502014,156.415161 314.519531,156.415161 
	C314.519531,199.946121 314.519531,243.374405 314.519531,287.494873 
	C335.864990,287.494873 356.745300,287.494873 377.860229,287.494873 
	C377.860229,290.344818 377.860229,292.501007 377.859314,295.140350 
z"/>
<path fill="#5BDFE4" opacity="1.000000" stroke="none" 
	d="
M371.112122,198.015305 
	C365.970673,214.682663 352.483185,220.312469 339.127594,216.731186 
	C329.555817,214.164490 323.378387,207.287399 321.622528,197.478882 
	C319.785583,187.217590 322.884064,178.391144 331.543427,171.977890 
	C332.601776,171.194061 333.715454,170.484924 335.310760,169.412476 
	C337.535339,168.642136 339.252594,168.200485 341.353455,167.825500 
	C343.465149,167.514221 345.193298,167.136292 347.255737,166.967041 
	C349.401947,167.408478 351.213867,167.641266 353.255859,168.135834 
	C358.491974,171.952225 363.498016,175.506836 368.591064,179.429993 
	C369.507080,181.532822 370.336060,183.267136 371.098083,185.444580 
	C371.294373,187.939285 371.557617,189.990860 371.647400,192.440399 
	C371.353333,194.563995 371.232727,196.289658 371.112122,198.015305 
z"/>
<path fill="#A6FB52" opacity="1.000000" stroke="none" 
	d="
M321.646912,247.952438 
	C327.501770,230.633774 344.884796,223.771057 359.772949,232.573853 
	C369.460052,238.301483 373.916718,251.595322 369.885529,262.739044 
	C365.723022,274.245911 354.257843,280.677490 341.493805,278.665802 
	C330.360291,276.911133 321.506226,266.695618 321.317810,255.321838 
	C321.279266,252.995697 321.431854,250.666367 321.646912,247.952438 
z"/>
<path fill="#3F8083" opacity="1.000000" stroke="none" 
	d="
M371.004028,149.056396 
	C377.330444,143.526245 383.653015,137.991669 389.985565,132.468536 
	C391.915619,130.785172 393.873108,129.133301 395.818024,127.466980 
	C396.292023,127.831451 396.766022,128.195923 397.240021,128.560394 
	C391.867462,138.471390 386.494873,148.382401 380.839478,158.790970 
	C380.101257,159.861420 379.645844,160.434280 378.820312,161.044907 
	C374.592743,163.047760 370.735260,165.012863 365.909363,167.471329 
	C366.542603,164.573929 367.008453,163.009445 367.206360,161.411758 
	C367.553223,158.612137 367.735809,155.792145 368.134735,152.703705 
	C369.159637,151.577255 370.036987,150.727783 370.948425,149.653809 
	C370.982483,149.429291 371.052887,148.980637 371.022217,148.987686 
	C370.991577,148.994736 371.004028,149.056396 371.004028,149.056396 
z"/>
<path fill="#EDEDED" opacity="1.000000" stroke="none" 
	d="
M136.770721,360.104218 
	C144.004044,362.494446 146.450058,366.058258 144.208923,370.745209 
	C142.127869,375.097351 138.115204,375.584320 134.014023,375.089020 
	C129.857697,374.587067 126.936630,372.453369 126.597046,366.386536 
	C128.971405,367.355591 130.760895,368.087036 132.551239,368.816345 
	C133.730209,369.296570 134.949371,370.221100 136.078857,370.122803 
	C137.146194,370.029907 138.119919,368.860840 139.134827,368.165161 
	C138.392914,367.228943 137.837769,365.899078 136.869614,365.439697 
	C134.944687,364.526398 132.405472,364.578186 130.837799,363.329895 
	C129.107773,361.952301 127.107132,359.516357 127.190475,357.628204 
	C127.285789,355.468903 129.054886,352.543488 130.956436,351.460541 
	C136.793564,348.136169 142.958038,351.321320 143.782089,357.456818 
	C139.792068,361.561737 136.503204,351.285828 131.870773,357.579041 
	C133.485519,358.440430 134.931000,359.211517 136.770721,360.104218 
z"/>
<path fill="#EEEEEE" opacity="1.000000" stroke="none" 
	d="
M245.504364,360.699493 
	C248.729996,355.903473 252.775253,354.966675 257.845093,356.480225 
	C259.672058,357.025635 261.798553,356.567780 264.027893,356.567780 
	C264.027893,362.478119 264.027893,368.384430 264.027893,374.295441 
	C260.438385,374.633820 256.869904,375.302887 253.315643,375.234436 
	C246.422089,375.101746 243.114410,369.018372 245.504364,360.699493 
M250.719193,362.380554 
	C250.964462,364.749695 250.725296,367.352570 251.698792,369.370422 
	C252.076279,370.152863 255.817581,370.371155 256.906830,369.479126 
	C258.219604,368.404114 259.264191,365.599243 258.795898,364.029022 
	C257.643646,360.165802 254.590805,359.923645 250.719193,362.380554 
z"/>
<path fill="#334B4B" opacity="1.000000" stroke="none" 
	d="
M346.921417,166.758377 
	C345.193298,167.136292 343.465149,167.514221 341.355835,167.441391 
	C342.321075,162.689468 343.667511,158.388275 345.013916,154.087097 
	C347.752014,148.249207 350.469025,142.401260 353.240356,136.579193 
	C354.146149,134.676239 355.193329,132.840591 356.175873,130.974152 
	C356.775757,131.035492 357.375641,131.096832 357.975525,131.158173 
	C357.975525,136.515915 357.975525,141.873672 357.991669,148.049408 
	C358.006500,149.559616 358.005188,150.251831 357.700684,151.104950 
	C353.905457,156.430038 350.413422,161.594208 346.921417,166.758377 
z"/>
<path fill="#EAEAEA" opacity="1.000000" stroke="none" 
	d="
M151.632507,381.367615 
	C150.092911,380.571198 148.912430,379.719757 147.117676,378.425323 
	C154.929031,375.049469 154.926987,375.050385 152.016998,368.558472 
	C150.275360,364.673096 148.541336,360.784332 146.684509,356.630005 
	C155.369385,354.492065 153.061462,363.218567 156.809784,365.746338 
	C160.785522,363.673645 158.087372,354.592682 167.013596,356.641022 
	C163.552643,364.003387 160.369781,371.187012 156.750168,378.143402 
	C155.979645,379.624207 153.619431,380.277863 151.632507,381.367615 
z"/>
<path fill="#EAEAEA" opacity="1.000000" stroke="none" 
	d="
M372.947174,369.014313 
	C370.628876,374.383240 366.268097,376.547577 361.087067,374.900696 
	C356.664093,373.494781 353.893127,368.652344 354.754089,363.833282 
	C355.648651,358.826080 359.515656,355.642303 364.538055,355.777985 
	C370.057098,355.927032 373.275146,359.423248 373.358185,366.325623 
	C368.730896,366.777252 364.576263,366.777252 359.634521,366.777252 
	C361.496765,370.804108 363.490814,371.336029 366.446991,370.315674 
	C368.516846,369.601166 370.773773,369.428802 372.947174,369.014313 
M366.921051,363.573761 
	C367.117889,362.875519 367.678741,361.727539 367.456177,361.547424 
	C364.734650,359.344543 362.341034,359.557739 359.705444,363.621429 
	C362.419434,363.621429 364.275391,363.621429 366.921051,363.573761 
z"/>
<path fill="#334C4C" opacity="1.000000" stroke="none" 
	d="
M371.820862,192.042450 
	C371.557617,189.990860 371.294373,187.939285 371.433167,185.417725 
	C375.906555,180.297165 379.977875,175.646606 384.305115,170.861694 
	C385.315521,170.149979 386.070038,169.572617 386.824554,168.995239 
	C390.945435,168.582809 395.069092,168.195847 399.185486,167.742630 
	C400.441406,167.604370 401.677277,167.283768 403.585999,168.117630 
	C397.493958,172.880020 391.401886,177.642426 384.801849,182.765289 
	C380.136200,186.097977 375.978516,189.070206 371.820862,192.042450 
z"/>
<path fill="#EBEBEB" opacity="1.000000" stroke="none" 
	d="
M330.180603,369.488647 
	C327.718231,374.118713 324.131989,375.987976 319.301208,375.151642 
	C315.085114,374.421814 312.530487,371.735565 311.573822,367.664978 
	C310.603271,363.535309 311.994751,360.117706 315.378265,357.592224 
	C320.731079,353.596802 327.322906,355.786835 330.811554,363.856323 
	C328.172638,363.139435 326.412323,362.428009 324.595703,362.227661 
	C322.396729,361.985138 320.150085,362.175018 317.924072,362.177826 
	C317.971405,364.443268 318.018738,366.708679 318.066040,368.974121 
	C320.268402,368.914581 322.725006,369.448944 324.607788,368.642914 
	C326.886322,367.667419 328.635834,366.203339 330.180603,369.488647 
z"/>
<path fill="#F3F3F3" opacity="1.000000" stroke="none" 
	d="
M222.495209,360.009125 
	C222.903214,365.006805 223.111557,369.628784 223.334335,374.571045 
	C221.438004,374.571045 220.050644,374.571045 218.065414,374.571045 
	C218.065414,371.260529 218.394958,367.928589 217.922699,364.714478 
	C217.695618,363.168976 215.955200,361.845856 214.900116,360.421997 
	C213.617676,361.735718 211.491669,362.899872 211.226791,364.394012 
	C210.659149,367.595795 211.052811,370.968048 211.052811,374.569489 
	C209.200104,374.569489 207.812225,374.569489 206.133850,374.569489 
	C206.133850,366.404816 206.133850,358.312103 206.133850,349.897095 
	C207.575638,349.897095 208.974213,349.897095 210.705261,349.897095 
	C210.852676,352.210571 210.997482,354.482849 211.165268,357.115814 
	C215.386398,355.907288 219.726852,354.376160 222.495209,360.009125 
z"/>
<path fill="#F3F3F3" opacity="1.000000" stroke="none" 
	d="
M351.155151,372.670227 
	C349.849396,373.916351 348.552307,374.699280 346.069885,376.197693 
	C346.069885,371.439453 346.383362,368.132477 345.937653,364.931152 
	C345.714783,363.330688 344.105713,361.923187 343.123627,360.428375 
	C341.757690,361.830048 339.548035,363.054352 339.208038,364.671692 
	C338.573639,367.689545 339.025818,370.935822 339.025818,374.467499 
	C337.389252,374.648499 335.997009,374.802460 334.209961,375.000061 
	C334.209961,366.605194 334.209961,358.520325 334.209961,349.999634 
	C335.557953,349.999634 337.056824,349.999634 338.752563,349.999634 
	C338.890991,352.398621 339.022980,354.685791 339.156738,357.003662 
	C348.370483,354.628448 351.124298,356.776947 351.164520,366.213135 
	C351.173035,368.211090 351.164490,370.209076 351.155151,372.670227 
z"/>
<path fill="#E5E5E5" opacity="1.000000" stroke="none" 
	d="
M169.092850,372.529114 
	C169.089355,366.963806 169.089355,361.849915 169.089355,357.122375 
	C172.909821,356.647858 176.200089,356.033722 179.511459,355.883240 
	C183.135544,355.718567 185.728790,357.642029 186.169479,361.253082 
	C186.704453,365.636810 186.642166,370.093414 186.844574,374.660187 
	C184.695450,374.660187 183.267517,374.660187 181.296677,374.660187 
	C181.296677,371.298370 181.598785,368.138763 181.173859,365.080170 
	C180.949173,363.463043 179.458908,362.021729 178.540024,360.501038 
	C177.163986,361.907196 174.941895,363.132935 174.595200,364.758606 
	C173.954254,367.764038 174.411896,371.003754 174.411896,375.681976 
	C172.074997,374.494354 170.585663,373.737457 169.092850,372.529114 
z"/>
<path fill="#EBEBEB" opacity="1.000000" stroke="none" 
	d="
M281.115295,357.582550 
	C282.670532,356.777740 284.130402,356.398987 286.174988,355.868530 
	C286.174988,360.524231 286.488068,364.487732 286.092834,368.379303 
	C285.636505,372.872620 282.005798,375.545349 277.262909,375.350220 
	C272.767395,375.165192 269.573151,373.131897 268.942413,368.393738 
	C268.593658,365.773651 268.836639,363.079926 268.599487,360.438568 
	C268.281464,356.895874 269.534393,355.380554 274.027893,356.694183 
	C274.027893,359.649902 273.682129,362.940826 274.176239,366.100433 
	C274.417084,367.640594 276.224915,368.935699 277.323456,370.341736 
	C278.541595,368.890106 280.426025,367.598785 280.822815,365.949554 
	C281.428436,363.432465 281.005890,360.668030 281.115295,357.582550 
z"/>
<path fill="#34595B" opacity="1.000000" stroke="none" 
	d="
M358.003876,150.944046 
	C358.005188,150.251831 358.006500,149.559616 357.999817,148.526123 
	C362.636749,142.143845 367.273132,136.096283 371.936188,130.069351 
	C372.598785,129.212936 373.390991,128.456772 374.987915,128.029495 
	C373.642242,134.755966 372.296570,141.482422 370.977478,148.632645 
	C371.004028,149.056396 370.991577,148.994736 370.885864,149.069077 
	C370.780151,149.143417 370.631805,149.531891 370.631805,149.531891 
	C370.631805,149.531891 370.914368,149.878311 370.914368,149.878311 
	C370.036987,150.727783 369.159637,151.577255 367.863495,152.893463 
	C364.644653,155.980103 361.844574,158.600006 358.888428,160.820709 
	C358.489563,157.262360 358.246704,154.103210 358.003876,150.944046 
z"/>
<path fill="#EEEEEE" opacity="1.000000" stroke="none" 
	d="
M296.018005,363.503937 
	C295.930359,367.408997 295.930359,370.870148 295.930359,374.604156 
	C293.900024,374.604156 292.481201,374.604156 290.838867,374.604156 
	C290.838867,368.570282 290.838867,362.626740 290.838867,357.039825 
	C294.352020,356.642181 297.662292,356.040741 300.986786,355.948059 
	C305.233551,355.829651 307.447968,358.527557 307.784180,362.433807 
	C308.122467,366.364746 307.858612,370.347504 307.858612,374.593323 
	C306.202362,374.593323 304.813721,374.593323 303.351074,374.593323 
	C303.177429,374.062561 302.906982,373.607635 302.898193,373.147705 
	C302.847412,370.485382 303.131042,367.781769 302.747070,365.173737 
	C302.512543,363.581116 301.283447,362.134918 300.501099,360.622925 
	C299.035950,361.435303 297.570801,362.247681 296.018005,363.503937 
z"/>
<path fill="#34595B" opacity="1.000000" stroke="none" 
	d="
M387.020447,168.711349 
	C386.070038,169.572617 385.315521,170.149979 383.907227,170.875916 
	C380.086090,171.301483 376.918762,171.578461 373.815369,171.502869 
	C375.649689,167.769241 377.420044,164.388199 379.190430,161.007156 
	C379.645844,160.434280 380.101257,159.861420 380.790527,159.140717 
	C387.750000,155.969345 394.475555,152.945786 401.599182,149.957794 
	C401.997223,149.993378 402.039215,150.030884 402.039215,150.030884 
	C397.098267,156.163071 392.157318,162.295258 387.020447,168.711349 
z"/>
<path fill="#EBEBEB" opacity="1.000000" stroke="none" 
	d="
M227.908417,369.844849 
	C227.908371,363.381683 227.908371,357.402863 227.908371,351.097076 
	C229.623291,350.972046 231.057693,350.867493 233.093216,350.719116 
	C233.093216,357.089081 233.093216,363.153137 233.093216,369.610718 
	C236.386368,369.795319 239.134064,369.949310 242.199387,370.121124 
	C242.199387,371.690369 242.199387,373.069397 242.199387,374.676270 
	C237.522675,374.676270 233.090302,374.676270 228.238876,374.676270 
	C228.125244,373.181458 228.016846,371.755341 227.908417,369.844849 
z"/>
<path fill="#E2E2E2" opacity="1.000000" stroke="none" 
	d="
M202.675812,358.031036 
	C201.278519,359.431976 199.865265,360.432587 197.882324,361.836578 
	C198.301590,364.563507 195.143356,369.433472 201.898010,370.637665 
	C202.433228,370.733093 202.571518,373.055237 202.898148,374.358002 
	C194.921646,375.499390 192.624557,373.500061 192.221115,366.226013 
	C192.091782,363.894470 191.181137,361.606293 190.627975,359.298248 
	C190.109299,359.260132 189.590637,359.222015 189.071976,359.183868 
	C191.512863,356.612579 193.953751,354.041290 196.888794,350.949463 
	C197.381393,353.069275 197.697296,354.428711 197.919174,355.383545 
	C199.669846,356.213379 201.164856,356.922058 202.675812,358.031036 
z"/>
<path fill="#EAEAEA" opacity="1.000000" stroke="none" 
	d="
M382.635864,357.190857 
	C384.548553,356.637604 386.093994,356.298798 387.959503,355.889832 
	C387.959503,357.741974 387.959503,359.027374 387.959503,360.580627 
	C378.125061,361.557251 383.982391,369.527161 381.684174,374.512390 
	C380.507355,374.512390 379.009644,374.512390 377.255585,374.512390 
	C377.255585,368.454346 377.255585,362.548248 377.255585,355.992096 
	C379.195801,356.539032 380.732208,356.972168 382.635864,357.190857 
z"/>
<path fill="#303838" opacity="1.000000" stroke="none" 
	d="
M371.647400,192.440399 
	C375.978516,189.070206 380.136200,186.097977 384.618103,183.047272 
	C387.381775,183.994064 389.821228,185.019348 393.313782,186.487213 
	C387.201996,192.568756 378.892365,194.195068 371.464905,197.960632 
	C371.232727,196.289658 371.353333,194.563995 371.647400,192.440399 
z"/>
<path fill="#303838" opacity="1.000000" stroke="none" 
	d="
M344.866943,153.746399 
	C343.667511,158.388275 342.321075,162.689468 340.972290,167.374756 
	C339.252594,168.200485 337.535339,168.642136 335.433472,169.096085 
	C336.568634,161.189514 338.088379,153.270630 339.608124,145.351761 
	C340.222778,145.290283 340.837433,145.228806 341.452087,145.167343 
	C342.541382,147.913467 343.630676,150.659592 344.866943,153.746399 
z"/>
<path fill="#4C4D4D" opacity="1.000000" stroke="none" 
	d="
M373.187744,368.781555 
	C370.773773,369.428802 368.516846,369.601166 366.446991,370.315674 
	C363.490814,371.336029 361.496765,370.804108 359.634521,366.777252 
	C364.576263,366.777252 368.730896,366.777252 373.329773,366.704742 
	C373.658752,367.271088 373.543549,367.909943 373.187744,368.781555 
z"/>
<path fill="#34595B" opacity="1.000000" stroke="none" 
	d="
M401.978577,149.972290 
	C402.064423,149.937988 402.168854,149.924759 402.156250,149.971222 
	C402.039215,150.030884 401.997223,149.993378 401.978577,149.972290 
z"/>
<path fill="#3F8083" opacity="1.000000" stroke="none" 
	d="
M397.567657,126.653961 
	C397.467163,126.733871 397.411102,126.450676 397.411102,126.450676 
	C397.411102,126.450676 397.668152,126.574043 397.567657,126.653961 
z"/>
<path fill="#49A2A5" opacity="1.000000" stroke="none" 
	d="
M378.820312,161.044907 
	C377.420044,164.388199 375.649689,167.769241 373.510925,171.631485 
	C371.596344,174.428940 370.050171,176.745193 368.504028,179.061462 
	C363.498016,175.506836 358.491974,171.952225 353.410034,167.850342 
	C355.237579,165.275345 357.141022,163.247620 359.044464,161.219894 
	C361.844574,158.600006 364.644653,155.980103 367.715973,153.170441 
	C367.735809,155.792145 367.553223,158.612137 367.206360,161.411758 
	C367.008453,163.009445 366.542603,164.573929 365.909363,167.471329 
	C370.735260,165.012863 374.592743,163.047760 378.820312,161.044907 
z"/>
<path fill="#3C787A" opacity="1.000000" stroke="none" 
	d="
M368.591064,179.429993 
	C370.050171,176.745193 371.596344,174.428940 373.446960,171.984070 
	C376.918762,171.578461 380.086090,171.301483 383.651306,171.010284 
	C379.977875,175.646606 375.906555,180.297165 371.500122,184.974594 
	C370.336060,183.267136 369.507080,181.532822 368.591064,179.429993 
z"/>
<path fill="#3C787A" opacity="1.000000" stroke="none" 
	d="
M358.888428,160.820709 
	C357.141022,163.247620 355.237579,165.275345 353.179993,167.588562 
	C351.213867,167.641266 349.401947,167.408478 347.255737,166.967041 
	C350.413422,161.594208 353.905457,156.430038 357.700684,151.104950 
	C358.246704,154.103210 358.489563,157.262360 358.888428,160.820709 
z"/>
<path fill="#232424" opacity="1.000000" stroke="none" 
	d="
M370.948425,149.653809 
	C370.914368,149.878311 370.631805,149.531891 370.631805,149.531891 
	C370.631805,149.531891 370.780151,149.143417 370.916504,149.062027 
	C371.052887,148.980637 370.982483,149.429291 370.948425,149.653809 
z"/>
<path fill="#303131" opacity="1.000000" stroke="none" 
	d="
M251.001007,362.063629 
	C254.590805,359.923645 257.643646,360.165802 258.795898,364.029022 
	C259.264191,365.599243 258.219604,368.404114 256.906830,369.479126 
	C255.817581,370.371155 252.076279,370.152863 251.698792,369.370422 
	C250.725296,367.352570 250.964462,364.749695 251.001007,362.063629 
z"/>
<path fill="#4C4D4D" opacity="1.000000" stroke="none" 
	d="
M366.526184,363.597595 
	C364.275391,363.621429 362.419434,363.621429 359.705444,363.621429 
	C362.341034,359.557739 364.734650,359.344543 367.456177,361.547424 
	C367.678741,361.727539 367.117889,362.875519 366.526184,363.597595 
z"/>
</svg>